# xmcd CD database file
#
# Track frame offsets:
#	150
#	15570
#	34105
#	53240
#	72055
#	95645
#	108132
#	129765
#	147355
#	162767
#	180045
#	198585
#	211085
#	227500
#	239625
#	263422
#	275767
#	284227
#	297252
#	315360
#
# Disc length: 4403 seconds
#
# Revision: 1
# Processed by: cddbd v1.5PL3 Copyright (c) Steve Scherf et al.
# Submitted via: CDex 1.50
#
DISCID=18113114
DTITLE=Various Artist - Scandinavian Blues BBQ
DYEAR=1900
DGENRE=Blues
TTITLE0=Once A Lover Twice A Fool - Sweet Pain
TTITLE1=Wisdom - Jenny and Bjørn
TTITLE2=Mean Old Woman - Bluebirds
TTITLE3=Frozen Fingers - Tommy Cougar and The Stingrays
TTITLE4=Happy Man - Big Blues and Boogie
TTITLE5=Yesterdays Dreams - Big Blues and Boogie
TTITLE6=Amy - Hounddogs
TTITLE7=Express Yourself - Honey B. and Rythm 'n' Roots
TTITLE8=Tell Mama - Honey B. and Rythm 'n' Roots
TTITLE9=Hawaiian Boogie - Benny and The Broom
TTITLE10=Chromatic Stroll - Blues Down Town
TTITLE11=Early At Five - Blues Down Town
TTITLE12=Daddy Rollin' Stone - Blue Hammer
TTITLE13=Love Feels Alright - Wentus Bluesband
TTITLE14=Death Don't Have No Mercy - Matti Norlin
TTITLE15=Travellin' Riverside Blues - Matti Norlin
TTITLE16=Joyride - Tommy Cougar and The Stingrays
TTITLE17=Takin' Care Of Business - Tommy Cougar and The Stingrays
TTITLE18=Yesterdays News - Fancy Pool
TTITLE19=Jellyroll - All In Your Mind
EXTD=
EXTT0=
EXTT1=
EXTT2=
EXTT3=
EXTT4=
EXTT5=
EXTT6=
EXTT7=
EXTT8=
EXTT9=
EXTT10=
EXTT11=
EXTT12=
EXTT13=
EXTT14=
EXTT15=
EXTT16=
EXTT17=
EXTT18=
EXTT19=
PLAYORDER=
